<svg width="433" height="98" viewBox="0 0 433 98" fill="none" xmlns="http://www.w3.org/2000/svg">
<g filter="url(#filter0_d_2_6)">
<path d="M109.024 56L115.936 14.08H124.32C130.549 14.08 134.624 15.7013 136.544 18.944C138.464 22.1867 138.869 27.5627 137.76 35.072C136.565 43.3493 134.304 48.96 130.976 51.904C129.227 53.44 127.285 54.5067 125.152 55.104C123.061 55.7013 120.501 56 117.472 56H109.024ZM123.936 17.28H118.688L112.864 52.8H117.984C121.227 52.8 123.829 52.3307 125.792 51.392C129.845 49.472 132.64 44.032 134.176 35.072C135.2 28.3307 134.965 23.68 133.472 21.12C131.979 18.56 128.8 17.28 123.936 17.28ZM151.904 26.944C153.739 25.792 155.936 25.216 158.496 25.216C161.099 25.216 163.168 25.8987 164.704 27.264C166.283 28.6293 167.072 30.528 167.072 32.96C167.072 35.392 166.155 37.5253 164.32 39.36C162.485 41.1947 159.861 42.3467 156.448 42.816L148.32 43.904C148.405 47.104 148.96 49.472 149.984 51.008C151.051 52.5013 152.843 53.248 155.36 53.248C157.877 53.248 160.864 52.6293 164.32 51.392L164.896 54.592C161.44 55.9147 158.112 56.576 154.912 56.576C151.755 56.576 149.28 55.5093 147.488 53.376C145.739 51.2427 144.864 48.2347 144.864 44.352C144.864 39.5733 145.803 35.3067 147.68 31.552C148.661 29.5893 150.069 28.0533 151.904 26.944ZM148.512 40.896L156 39.808C158.56 39.424 160.48 38.6133 161.76 37.376C163.083 36.096 163.744 34.6453 163.744 33.024C163.744 29.8667 161.845 28.288 158.048 28.288C155.104 28.288 152.843 29.4827 151.264 31.872C149.728 34.2613 148.811 37.2693 148.512 40.896ZM183.2 25.6L183.072 28.16C187.253 26.1973 190.645 25.216 193.248 25.216C195.851 25.216 197.771 26.1547 199.008 28.032C200.245 29.9093 200.672 32.4693 200.288 35.712L197.088 56H193.696L197.088 35.712C197.344 33.6213 197.088 31.8933 196.32 30.528C195.552 29.2053 194.144 28.544 192.096 28.544C190.048 28.544 186.869 29.4827 182.56 31.36L178.464 56H175.136L180.128 25.6H183.2ZM213.408 45.76L216.16 29.248H210.272L210.784 26.048H216.672L217.888 18.688L221.344 18.048L220 26.048H230.24L229.728 29.248H219.488L216.864 45.632C216.821 46.144 216.736 46.8267 216.608 47.68C216.48 48.4907 216.395 49.0667 216.352 49.408C216.352 49.7067 216.331 50.1333 216.288 50.688C216.245 51.2 216.267 51.5413 216.352 51.712L216.672 52.416C216.971 53.0133 218.037 53.312 219.872 53.312C221.749 53.312 223.84 52.9067 226.144 52.096L226.528 55.296C224.053 56.192 221.643 56.64 219.296 56.64C216.992 56.64 215.328 56.256 214.304 55.488C213.28 54.6773 212.768 53.4613 212.768 51.84C212.811 50.2187 213.024 48.192 213.408 45.76ZM249.12 53.184C250.229 53.184 251.851 52.0747 253.984 49.856C256.117 47.5947 257.547 45.8027 258.272 44.48L260.64 30.4C258.336 29.2053 256.331 28.608 254.624 28.608C250.912 28.608 248.032 30.2507 245.984 33.536C243.936 36.7787 242.912 40.4267 242.912 44.48C242.912 46.9973 243.403 49.088 244.384 50.752C245.365 52.3733 246.944 53.184 249.12 53.184ZM249.184 56.576C245.899 56.576 243.424 55.552 241.76 53.504C240.139 51.456 239.328 48.5973 239.328 44.928C239.328 40.2773 240.523 35.9467 242.912 31.936C244.107 29.9733 245.707 28.3733 247.712 27.136C249.717 25.856 252 25.216 254.56 25.216C255.371 25.216 256.437 25.4293 257.76 25.856C259.083 26.24 260.149 26.6453 260.96 27.072L261.344 25.792H264.736L260.896 48.96L261.024 56.128L257.824 56.512L257.312 50.048C256.373 51.6693 255.136 53.1627 253.6 54.528C252.064 55.8933 250.592 56.576 249.184 56.576ZM280.352 45.76L285.088 16.64H276.832L277.28 13.44H288.928L283.68 45.632C283.125 48.6187 282.976 50.6453 283.232 51.712C283.488 52.7787 284.597 53.312 286.56 53.312C288.523 53.312 290.677 52.9067 293.024 52.096L293.408 55.296C290.891 56.192 288.48 56.64 286.176 56.64C283.872 56.64 282.208 56.256 281.184 55.488C280.16 54.6773 279.669 53.4613 279.712 51.84C279.755 50.2187 279.968 48.192 280.352 45.76ZM317.664 32.96C321.163 33.9413 323.616 35.264 325.024 36.928C326.475 38.5493 326.987 41.1947 326.56 44.864C326.133 48.4907 324.619 51.3493 322.016 53.44C319.456 55.5307 316.341 56.576 312.672 56.576C309.899 56.576 306.485 55.9573 302.432 54.72L303.584 51.52C307.509 52.7147 310.731 53.312 313.248 53.312C315.808 53.312 317.984 52.5867 319.776 51.136C321.611 49.6427 322.677 47.5733 322.976 44.928C323.275 42.2827 322.891 40.3413 321.824 39.104C320.8 37.8667 318.517 36.8 314.976 35.904C311.477 34.9653 308.981 33.6213 307.488 31.872C306.037 30.08 305.504 27.4987 305.888 24.128C306.315 20.7573 307.744 18.1333 310.176 16.256C312.608 14.3787 315.552 13.44 319.008 13.44C322.507 13.44 325.984 14.1013 329.44 15.424L328.224 18.624C325.067 17.344 322.059 16.704 319.2 16.704C316.384 16.704 314.144 17.344 312.48 18.624C310.816 19.904 309.835 21.7387 309.536 24.128C309.28 26.4747 309.685 28.288 310.752 29.568C311.861 30.8053 314.165 31.936 317.664 32.96ZM346.528 56.64C338.592 56.7253 335.179 51.52 336.288 41.024C337.781 30.4853 342.261 25.216 349.728 25.216C353.611 25.1733 356.427 26.4533 358.176 29.056C359.925 31.6587 360.523 35.584 359.968 40.832C358.475 51.3707 353.995 56.64 346.528 56.64ZM356.576 40.896C357.216 36.9707 356.917 33.92 355.68 31.744C354.485 29.568 352.48 28.48 349.664 28.48C346.848 28.4373 344.651 29.504 343.072 31.68C341.493 33.8133 340.363 36.8853 339.68 40.896C339.04 44.864 339.339 47.936 340.576 50.112C341.813 52.288 343.861 53.3547 346.72 53.312C351.925 53.312 355.211 49.1733 356.576 40.896ZM374.496 28.8H368.736L369.248 25.6H374.944C375.883 17.152 379.36 12.928 385.376 12.928C387.339 12.928 389.451 13.2907 391.712 14.016L390.56 17.28C388.341 16.5973 386.528 16.256 385.12 16.256C381.323 16.256 379.061 19.3707 378.336 25.6H389.088L388.576 28.8H377.952C376.8 38.912 375.669 47.2533 374.56 53.824C373.451 60.3947 372.619 64.448 372.064 65.984L371.232 68.288H367.84C368.053 67.8613 368.352 67.0293 368.736 65.792C369.12 64.5547 369.888 60.5867 371.04 53.888C372.192 47.1893 373.344 38.8267 374.496 28.8ZM405.408 45.76L408.16 29.248H402.272L402.784 26.048H408.672L409.888 18.688L413.344 18.048L412 26.048H422.24L421.728 29.248H411.488L408.864 45.632C408.821 46.144 408.736 46.8267 408.608 47.68C408.48 48.4907 408.395 49.0667 408.352 49.408C408.352 49.7067 408.331 50.1333 408.288 50.688C408.245 51.2 408.267 51.5413 408.352 51.712L408.672 52.416C408.971 53.0133 410.037 53.312 411.872 53.312C413.749 53.312 415.84 52.9067 418.144 52.096L418.528 55.296C416.053 56.192 413.643 56.64 411.296 56.64C408.992 56.64 407.328 56.256 406.304 55.488C405.28 54.6773 404.768 53.4613 404.768 51.84C404.811 50.2187 405.024 48.192 405.408 45.76Z" fill="black"/>
<g clip-path="url(#clip0_2_6)">
<rect x="6" width="80" height="80" rx="16" fill="#1B2C3B"/>
<path fill-rule="evenodd" clip-rule="evenodd" d="M53.0285 13.1176C48.946 14.8559 43.0539 14.8559 38.9713 13.1175C35.6543 11.7052 31.9441 11.5742 28.5206 13.0542C21.296 16.1774 18.0556 25.3044 21.2 33.5377C21.2007 33.5395 21.2007 33.5416 21.1999 33.5434L22.1812 35.6639C25.4982 42.8322 27.9985 50.3465 29.6354 58.067L31.1925 65.4112C31.7314 67.5224 33.6356 69 35.8177 69C38.1612 69 40.1581 67.3012 40.5301 64.9909L42.7253 51.3595C42.9839 49.7541 44.3715 48.5736 46 48.5736C47.6286 48.5736 49.0162 49.7541 49.2747 51.3595L51.4699 64.9909C51.8419 67.3012 53.8388 69 56.1823 69C58.3644 69 60.2686 67.5224 60.8075 65.4112L62.3646 58.067C64.0015 50.3465 66.5018 42.8322 69.8188 35.6639L70.8001 33.5434C70.7993 33.5416 70.7993 33.5395 70.8 33.5377C73.9444 25.3044 70.704 16.1774 63.4794 13.0542C60.0559 11.5742 56.3456 11.7052 53.0285 13.1176Z" fill="url(#paint0_linear_2_6)"/>
<path d="M42.7149 44.4294C43.7537 43.9183 44.8797 43.6794 46 43.7126C47.1203 43.6794 48.2463 43.9183 49.2851 44.4294C51.8353 45.6841 53.5705 48.2437 53.858 51.175L54.833 61.1138C54.8732 61.5231 55.1657 61.8663 55.5648 61.9689C56.1839 62.128 56.7779 61.6563 56.7779 61.0183V56.4471C56.7779 51.0129 57.776 45.6292 59.7179 40.5885L63.434 30.9425C65.7629 24.8975 60.5357 18.6485 54.495 20.2561L49.9551 21.4643C48.6569 21.8098 47.3292 21.9915 46 22.0094C44.6708 21.9915 43.3431 21.8098 42.0449 21.4643L37.505 20.2561C31.4643 18.6485 26.2371 24.8975 28.566 30.9425L32.2821 40.5885C34.224 45.6292 35.2221 51.0129 35.2221 56.4471V61.0183C35.2221 61.6563 35.8161 62.128 36.4352 61.9689C36.8343 61.8663 37.1268 61.5231 37.167 61.1138L38.142 51.175C38.4295 48.2437 40.1647 45.6841 42.7149 44.4294Z" fill="url(#paint1_radial_2_6)"/>
<path d="M86 31C86 31 68.0914 37.9277 46 37.9277C23.9086 37.9277 6 31 6 31V68H86V31Z" fill="url(#paint2_linear_2_6)"/>
</g>
</g>
<defs>
<filter id="filter0_d_2_6" x="0.2" y="0" width="431.84" height="97.8" filterUnits="userSpaceOnUse" color-interpolation-filters="sRGB">
<feFlood flood-opacity="0" result="BackgroundImageFix"/>
<feColorMatrix in="SourceAlpha" type="matrix" values="0 0 0 0 0 0 0 0 0 0 0 0 0 0 0 0 0 0 127 0" result="hardAlpha"/>
<feOffset dx="2" dy="10"/>
<feGaussianBlur stdDeviation="3.9"/>
<feComposite in2="hardAlpha" operator="out"/>
<feColorMatrix type="matrix" values="0 0 0 0 0 0 0 0 0 0 0 0 0 0 0 0 0 0 0.4 0"/>
<feBlend mode="normal" in2="BackgroundImageFix" result="effect1_dropShadow_2_6"/>
<feBlend mode="normal" in="SourceGraphic" in2="effect1_dropShadow_2_6" result="shape"/>
</filter>
<linearGradient id="paint0_linear_2_6" x1="46" y1="12" x2="46" y2="69" gradientUnits="userSpaceOnUse">
<stop stop-color="#486982"/>
<stop offset="1" stop-color="#3A556A"/>
</linearGradient>
<radialGradient id="paint1_radial_2_6" cx="0" cy="0" r="1" gradientUnits="userSpaceOnUse" gradientTransform="translate(46 44.2066) rotate(-108.454) scale(25.6575 21.9255)">
<stop stop-color="#375168"/>
<stop offset="1" stop-color="#2C4255"/>
</radialGradient>
<linearGradient id="paint2_linear_2_6" x1="46" y1="31" x2="46" y2="62.1014" gradientUnits="userSpaceOnUse">
<stop stop-color="#466780"/>
<stop offset="1" stop-color="#486881" stop-opacity="0"/>
</linearGradient>
<clipPath id="clip0_2_6">
<rect width="80" height="80" fill="white" transform="translate(6)"/>
</clipPath>
</defs>
</svg>
