<svg width="16" height="22" viewBox="0 0 16 22" fill="none" xmlns="http://www.w3.org/2000/svg">
<path d="M14 9.66669C14 14.3334 8 18.3334 8 18.3334C8 18.3334 2 14.3334 2 9.66669C2 8.07539 2.63214 6.54926 3.75736 5.42405C4.88258 4.29883 6.4087 3.66669 8 3.66669C9.5913 3.66669 11.1174 4.29883 12.2426 5.42405C13.3679 6.54926 14 8.07539 14 9.66669Z" stroke="#010C0D" stroke-width="1.5" stroke-linecap="round" stroke-linejoin="round"/>
<path d="M8 11.6667C9.10457 11.6667 10 10.7713 10 9.66669C10 8.56212 9.10457 7.66669 8 7.66669C6.89543 7.66669 6 8.56212 6 9.66669C6 10.7713 6.89543 11.6667 8 11.6667Z" stroke="#010C0D" stroke-width="1.5" stroke-linecap="round" stroke-linejoin="round"/>
</svg>
